PathFileType	4	(X/Y/Z)	C:\Users\dbl\Desktop\20210112\20210112\bx_n_5_502.trc
DataRate	CameraRate	NumFrames	NumMarkers	Units	OrigDataRate	OrigDataStartFrame	OrigNumFrames
50.00	50.00	       8	43	mm	50.00	184	       489
Frame#	Time	Top.Head			R.Acromium			L.Acromium			Sternum			R.ASIS			L.ASIS			V.Sacral			R.Thigh.Upper			R.Thigh.Front			R.Thigh.Rear			R.Knee.Lat			R.Knee.Med			R.Shank.Upper			R.Shank.Front			R.Shank.Rear			R.Ankle.Lat			R.Midfoot.Lat			R.Toe.Lat			R.Toe.Tip			R.Toe.Med			R.Ankle.Med			R.Midfoot.Sup			R.Heel			L.Thigh.Upper			L.Thigh.Front			L.Thigh.Rear			L.Knee.Lat			L.Knee.Med			L.Shank.Upper			L.Shank.Front			L.Shank.Rear			L.Ankle.Lat			L.Midfoot.Lat			L.Toe.Lat			L.Toe.Tip			L.Toe.Med			L.Ankle.Med			L.Midfoot.Sup			L.Heel			origin1 front left			origin2 front right			origin 3 back right			origin 4 back leftt			
		X1	Y1	Z1	X2	Y2	Z2	X3	Y3	Z3	X4	Y4	Z4	X5	Y5	Z5	X6	Y6	Z6	X7	Y7	Z7	X8	Y8	Z8	X9	Y9	Z9	X10	Y10	Z10	X11	Y11	Z11	X12	Y12	Z12	X13	Y13	Z13	X14	Y14	Z14	X15	Y15	Z15	X16	Y16	Z16	X17	Y17	Z17	X18	Y18	Z18	X19	Y19	Z19	X20	Y20	Z20	X21	Y21	Z21	X22	Y22	Z22	X23	Y23	Z23	X24	Y24	Z24	X25	Y25	Z25	X26	Y26	Z26	X27	Y27	Z27	X28	Y28	Z28	X29	Y29	Z29	X30	Y30	Z30	X31	Y31	Z31	X32	Y32	Z32	X33	Y33	Z33	X34	Y34	Z34	X35	Y35	Z35	X36	Y36	Z36	X37	Y37	Z37	X38	Y38	Z38	X39	Y39	Z39	X40	Y40	Z40	X41	Y41	Z41	X42	Y42	Z42	X43	Y43	Z43	

184	3.660	-596.69092	117.95201	1823.39404	-609.84131	-59.33603	1511.84351	-620.84369	298.24188	1515.29968	-577.13574	115.68997	1322.05957	-660.74487	6.06049	1051.10925	-671.28412	252.85335	1065.75049	-862.72784	103.37793	1070.09607	-729.81995	-61.52802	878.00647	-646.57062	-2.81252	811.13330	-741.92383	-53.14071	761.51318	-747.31372	-29.56773	618.31824	-724.92017	78.00666	573.23669	-749.62256	-27.92719	570.95825	-694.48218	18.63119	524.93311	-785.11249	-41.47985	487.73630	-761.09216	-22.07307	206.86368	-648.29791	-68.45405	161.39850	-605.45459	-72.88798	157.78374	-549.19879	-23.85912	162.41106	-600.94122	26.98883	168.65556	-721.45099	67.60635	218.53423	-674.91229	51.80013	161.67546	-794.08008	35.73110	173.31326	-757.11694	291.27905	876.69580	-652.82465	238.19586	797.65662	-755.70215	280.46686	745.41101	-777.10278	260.79132	641.54022	-733.34821	154.90372	578.01874	-773.50507	257.23184	574.84839	-714.82684	216.95695	539.37885	-805.96906	266.13126	497.78781	-771.85736	232.62427	203.13136	-659.59888	298.09286	156.94904	-623.77496	306.17242	158.02844	-558.71088	255.08055	164.03343	-595.06635	219.90118	174.91071	-716.99664	158.81090	221.70656	-677.36694	175.20853	162.67316	-798.31836	183.05093	182.69345	-527.93805	304.34525	146.73811	-517.89941	-72.89188	143.18695	-875.86511	-78.64768	141.23915	-882.50555	296.26016	144.84244	
185	3.680	-606.79639	117.53129	1826.84888	-616.85809	-59.37856	1515.16833	-627.69373	298.52850	1518.71130	-580.35913	115.96655	1325.98193	-657.97467	6.29945	1051.83899	-668.63916	253.17786	1066.24988	-860.08472	103.88415	1069.25281	-726.87976	-61.26875	878.19580	-643.62952	-2.75775	811.26257	-739.35925	-52.84148	761.73657	-745.28369	-29.17140	618.44885	-722.67273	78.20287	573.36505	-747.60669	-27.65965	571.15485	-692.64771	18.76839	524.82990	-783.63916	-41.15695	488.05804	-760.99695	-22.03708	207.04652	-648.31219	-68.45733	161.39793	-605.47870	-72.94815	157.87447	-549.20435	-23.89565	162.38541	-600.81708	26.96605	168.68248	-721.15839	67.70575	218.49303	-674.93805	51.81992	161.65659	-793.98645	35.82910	173.39023	-753.82312	291.49161	876.77197	-649.81366	238.29561	797.58167	-753.00732	280.50571	745.51630	-774.97437	260.85196	641.72266	-731.34918	155.04158	578.07568	-771.65588	257.33768	575.04626	-713.11517	217.02481	539.35803	-804.54163	266.11896	498.11496	-771.73438	232.52539	203.16644	-659.62610	298.16342	156.90067	-623.76031	306.20889	158.04825	-558.65448	255.13400	164.00851	-595.01752	219.92822	174.85823	-716.93634	158.84079	221.59303	-677.24139	175.22643	162.68059	-798.20245	182.97473	182.76140	-527.93024	304.31967	146.74031	-517.89502	-72.91956	143.20638	-875.87463	-78.67503	141.23915	-882.49182	296.24985	144.83946	
186	3.700	-616.58588	117.21938	1829.95935	-623.81018	-59.44408	1518.16223	-634.42889	298.74466	1521.82654	-583.52228	116.23676	1329.64087	-655.29810	6.45146	1052.60034	-666.00427	253.46132	1066.73730	-857.45325	104.42954	1068.39063	-723.96857	-61.00797	878.34930	-640.70825	-2.65274	811.37238	-736.91345	-52.46043	761.85950	-743.28003	-28.78318	618.54297	-720.42944	78.46058	573.45886	-745.54010	-27.42876	571.33344	-690.83569	18.93416	524.76794	-782.14026	-40.83699	488.35831	-760.92108	-21.96949	207.22060	-648.32465	-68.46614	161.39886	-605.49017	-72.99851	157.94278	-549.20557	-23.92799	162.35901	-600.67334	26.97625	168.70720	-720.94403	67.74712	218.40236	-674.94489	51.82083	161.63838	-793.88055	35.95401	173.49182	-750.50842	291.74527	876.82916	-646.80603	238.31015	797.49243	-750.26929	280.48965	745.60101	-772.79437	260.96130	641.91571	-729.32245	155.19353	578.10864	-769.76715	257.44681	575.25067	-711.40234	217.04404	539.27625	-803.06506	266.11423	498.43225	-771.59412	232.40331	203.20718	-659.66235	298.21744	156.85672	-623.74243	306.23624	158.07338	-558.58875	255.18896	164.00400	-594.95587	219.92752	174.82378	-716.86371	158.86311	221.48172	-677.09497	175.21846	162.65704	-798.05927	182.90952	182.84160	-527.92792	304.28754	146.73627	-517.88989	-72.94674	143.21346	-875.88947	-78.69383	141.26274	-882.47900	296.22906	144.82513	
187	3.720	-626.06329	116.96526	1832.75098	-630.69940	-59.50511	1520.81995	-641.06580	298.88519	1524.62744	-586.62732	116.48998	1333.05750	-652.71655	6.49044	1053.44470	-663.22266	253.64766	1067.24487	-854.86328	104.97141	1067.51331	-721.06110	-60.75418	878.47705	-637.82776	-2.48503	811.43579	-734.47943	-52.04659	761.93890	-741.24829	-28.45885	618.63794	-718.22339	78.74752	573.52069	-743.49164	-27.24116	571.48065	-689.07281	19.12562	524.70367	-780.64050	-40.51998	488.63345	-760.87396	-21.87675	207.36226	-648.33276	-68.47472	161.40877	-605.48462	-73.02361	157.96747	-549.20166	-23.95219	162.33617	-600.54163	27.01376	168.72333	-720.80292	67.76364	218.29646	-674.93060	51.80310	161.62190	-793.76666	36.09509	173.59680	-747.18701	292.02695	876.86572	-643.81311	238.27609	797.43604	-747.49731	280.42700	745.68774	-770.55078	261.13565	642.13330	-727.29688	155.36931	578.13513	-767.85443	257.54349	575.44147	-709.70490	217.04242	539.13794	-801.53748	266.14456	498.72562	-771.45752	232.29132	203.25922	-659.71271	298.27707	156.80403	-623.72247	306.26257	158.10089	-558.52222	255.23570	163.99869	-594.88806	219.91093	174.81743	-716.77368	158.87643	221.39104	-676.95728	175.18568	162.59229	-797.88788	182.86353	182.93646	-527.93365	304.26877	146.72701	-517.88751	-72.96736	143.20538	-875.91174	-78.70082	141.31551	-882.47131	296.20267	144.80209	
188	3.740	-635.24481	116.72569	1835.23938	-637.50116	-59.54396	1523.16492	-647.60443	298.96664	1527.12085	-589.68793	116.71764	1336.23938	-650.20453	6.38831	1054.38916	-660.03918	253.64886	1067.83057	-852.32977	105.47031	1066.62781	-718.14972	-60.52658	878.59741	-635.00586	-2.27585	811.44873	-731.98969	-51.63869	762.01611	-739.15710	-28.24216	618.76196	-716.09106	79.02079	573.55939	-741.52960	-27.08020	571.58899	-687.37158	19.32619	524.59015	-779.16272	-40.20341	488.88116	-760.84180	-21.77439	207.46376	-648.33630	-68.47571	161.43073	-605.47308	-73.02439	157.95415	-549.19354	-23.97271	162.31267	-600.44934	27.05750	168.72743	-720.70880	67.78934	218.17729	-674.90320	51.77635	161.60674	-793.64886	36.23677	173.67671	-743.87970	292.30664	876.88263	-640.84753	238.23456	797.43829	-744.72083	280.34940	745.79779	-768.26697	261.36288	642.37097	-725.32385	155.55429	578.18060	-765.95251	257.61362	575.60565	-708.03754	217.05035	538.96985	-799.97815	266.22543	498.99329	-771.34106	232.21297	203.32303	-659.77551	298.35767	156.73218	-623.69989	306.29642	158.12640	-558.45563	255.26720	163.97913	-594.82104	219.89337	174.83411	-716.66937	158.88300	221.32730	-676.83966	175.14000	162.49269	-797.69977	182.83670	183.03764	-527.94165	304.27054	146.71739	-517.88965	-72.97517	143.18645	-875.93768	-78.69389	141.38322	-882.46948	296.18024	144.77695	
189	3.760	-644.15289	116.48048	1837.42981	-644.17279	-59.55910	1525.23523	-654.02374	299.01883	1529.33350	-592.71075	116.92790	1339.18005	-647.72540	6.12322	1055.41772	-656.20782	253.37291	1068.55237	-849.85144	105.90746	1065.74194	-715.24402	-60.34176	878.71906	-632.24481	-2.06282	811.43164	-729.44507	-51.24830	762.09723	-737.02631	-28.14682	618.91711	-714.05884	79.24515	573.58966	-739.68536	-26.92405	571.66217	-685.73419	19.49774	524.40118	-777.72223	-39.89186	489.10373	-760.79639	-21.67899	207.53325	-648.33875	-68.46472	161.45906	-605.47119	-73.01788	157.92690	-549.18512	-23.99914	162.28358	-600.41248	27.07893	168.72626	-720.62714	67.84582	218.02318	-674.87415	51.75100	161.59399	-793.53436	36.36283	173.70781	-740.62280	292.55035	876.88116	-637.93219	238.20630	797.49329	-741.98755	280.29623	745.93689	-765.99951	261.60406	642.61188	-723.45770	155.71034	578.26270	-764.09381	257.65771	575.74890	-706.40924	217.08846	538.80725	-798.42426	266.34863	499.24619	-771.24719	232.17229	203.39240	-659.83997	298.45349	156.64468	-623.67529	306.34384	158.14256	-558.38483	255.28551	163.94789	-594.75970	219.88477	174.85896	-716.55579	158.88756	221.27505	-676.74023	175.09694	162.38074	-797.52399	182.82024	183.12857	-527.94550	304.28772	146.71220	-517.89624	-72.96576	143.16655	-875.95483	-78.67250	141.43228	-882.47186	296.17291	144.75970	
190	3.780	-652.80640	116.23050	1839.32642	-650.66833	-59.55112	1527.05933	-660.29236	299.07254	1531.29712	-595.67908	117.14720	1341.87158	-645.25128	5.70068	1056.49597	-651.66119	252.78714	1069.42358	-847.41962	106.28343	1064.86304	-712.35791	-60.20527	878.83203	-629.53412	-1.86947	811.41235	-726.88965	-50.87652	762.17255	-734.91534	-28.14968	619.08228	-712.13538	79.40299	573.62762	-737.94946	-26.76539	571.71051	-684.15631	19.59041	524.14612	-776.32983	-39.60250	489.30844	-760.71442	-21.60196	207.58820	-648.34515	-68.44294	161.48273	-605.48621	-73.02200	157.90967	-549.18146	-24.03716	162.25308	-600.43213	27.05850	168.73271	-720.52966	67.93255	217.82066	-674.85315	51.73320	161.58714	-793.43341	36.46282	173.68471	-737.46851	292.73816	876.86609	-635.09991	238.19043	797.57581	-739.35101	280.29495	746.09393	-763.81287	261.80856	642.83832	-721.72211	155.79787	578.38159	-762.29163	257.69016	575.88922	-704.82318	217.15742	538.67651	-796.91455	266.48584	499.50131	-771.16736	232.15805	203.45833	-659.89233	298.54346	156.55774	-623.65149	306.40674	158.14000	-558.30682	255.30006	163.91754	-594.70490	219.88663	174.87778	-716.43201	158.89717	221.20345	-676.65381	175.06874	162.28406	-797.39722	182.79865	183.19531	-527.94354	304.31183	146.71246	-517.90558	-72.94007	143.15686	-875.94537	-78.63937	141.42645	-882.47607	296.18643	144.75806	
191	3.800	-661.21606	115.97952	1840.94312	-656.95093	-59.51054	1528.64673	-666.38550	299.14709	1533.03503	-598.55011	117.40344	1344.31787	-642.77332	5.16217	1057.58826	-646.61670	251.96753	1070.38928	-845.03113	106.60262	1063.99744	-709.49976	-60.11273	878.91595	-626.86377	-1.68766	811.40662	-724.36047	-50.54390	762.24646	-732.88513	-28.20497	619.23260	-710.31683	79.49328	573.68365	-736.29193	-26.61700	571.74164	-682.62775	19.56805	523.86719	-774.99786	-39.35960	489.50494	-760.59052	-21.54929	207.64552	-648.35791	-68.41744	161.49268	-605.51257	-73.04131	157.91182	-549.18518	-24.08335	162.23331	-600.49500	26.99830	168.75400	-720.40552	68.02678	217.58777	-674.84576	51.72504	161.58928	-793.35602	36.53607	173.62717	-734.47260	292.87292	876.84802	-632.38538	238.17740	797.65802	-736.85040	280.34924	746.25006	-761.74786	261.93958	643.04108	-720.08936	155.80699	578.51935	-760.54187	257.72461	576.04120	-703.27869	217.23849	538.58795	-795.46960	266.60327	499.77005	-771.09283	232.15508	203.51447	-659.92657	298.60898	156.48729	-623.63257	306.48184	158.11209	-558.22296	255.31952	163.89798	-594.65393	219.89479	174.88605	-716.28754	158.92039	221.08569	-676.57434	175.06058	162.22125	-797.34424	182.75386	183.23508	-527.93817	304.33740	146.71548	-517.91449	-72.90596	143.16260	-875.89661	-78.60371	141.35225	-882.48108	296.21597	144.77086	
